<svg width="200" height="200" viewBox="0 0 200 200" fill="none" xmlns="http://www.w3.org/2000/svg">
<path fill-rule="evenodd" clip-rule="evenodd" d="M175.754 100.044V99.4882H175.199V100.046H175.198C175.198 100.23 175.197 100.415 175.196 100.599C175.088 115.27 170.688 129.592 162.532 141.797C154.274 154.156 142.537 163.789 128.804 169.477C115.071 175.166 99.9602 176.654 85.3817 173.754C70.8031 170.854 57.4118 163.697 46.9013 153.186C36.3907 142.675 29.2329 129.284 26.3331 114.706C23.4331 100.127 24.9215 85.0159 30.6098 71.2831C36.2981 57.5505 45.9307 45.8129 58.29 37.5548C70.495 29.3996 84.8176 24.9994 99.4879 24.8911C99.6731 24.8898 99.8583 24.8891 100.043 24.8891V24.8898H100.599V24.8891V24.3335H100.043C85.0694 24.3335 70.4316 28.7739 57.9813 37.0929C45.5307 45.412 35.8268 57.2365 30.0965 71.0706C24.3663 84.9048 22.8668 100.128 25.7881 114.814C28.7094 129.5 35.9202 142.991 46.5085 153.579C57.0966 164.167 70.587 171.378 85.2733 174.299C99.9596 177.22 115.182 175.721 129.017 169.991C142.851 164.26 154.675 154.556 162.994 142.106C171.313 129.655 175.754 115.018 175.754 100.044Z" fill="white"/>
<path d="M173.345 79.4424C173.345 90.7102 164.208 99.8446 152.938 99.8446C164.208 99.8446 173.345 108.979 173.345 120.247C173.345 108.982 182.476 99.8494 193.743 99.8446C182.476 99.8396 173.345 90.7072 173.345 79.4424Z" fill="white"/>
<path fill-rule="evenodd" clip-rule="evenodd" d="M105.93 71.3818H105.56V71.7522V71.7524H105.929V100.466H77.216V100.097H77.2156H76.8452V100.467C76.8452 106.219 78.5511 111.843 81.7471 116.626C84.9428 121.409 89.4854 125.137 94.8 127.338C100.115 129.539 105.963 130.116 111.605 128.993C117.247 127.871 122.429 125.101 126.497 121.033C130.564 116.966 133.334 111.783 134.457 106.141C135.579 100.499 135.003 94.6511 132.802 89.3366C130.6 84.022 126.872 79.4794 122.089 76.2835C117.306 73.0876 111.683 71.3818 105.93 71.3818ZM121.884 76.5915C117.264 73.505 111.851 71.8261 106.301 71.7546C106.177 71.7529 106.054 71.7522 105.93 71.7522V72.1226V100.097V100.467H105.56H77.586H77.2156C77.2156 100.591 77.2163 100.714 77.218 100.837C77.2897 106.387 78.9684 111.801 82.0548 116.42C85.2102 121.142 89.6949 124.823 94.9417 126.996C100.189 129.169 105.962 129.738 111.532 128.63C117.102 127.522 122.219 124.787 126.235 120.771C130.251 116.756 132.985 111.639 134.093 106.069C135.201 100.499 134.633 94.7252 132.459 89.4783C130.286 84.2313 126.606 79.7466 121.884 76.5915Z" fill="white"/>
<path d="M77.9604 88.1655C77.9604 93.9055 73.3061 98.5589 67.5646 98.5589C73.3061 98.5589 77.9604 103.212 77.9604 108.952C77.9604 103.214 82.612 98.5613 88.3513 98.5589C82.612 98.5563 77.9604 93.904 77.9604 88.1655Z" fill="white"/>
<path fill-rule="evenodd" clip-rule="evenodd" d="M154.561 88.0054C149.078 66.4406 129.533 50.4897 106.262 50.4897C78.7402 50.4897 56.4291 72.8008 56.4291 100.323C56.4291 127.845 78.7402 150.156 106.262 150.156C128.997 150.156 148.176 134.932 154.16 114.122C147.988 138.15 126.182 155.907 100.229 155.907C69.479 155.907 44.5511 130.979 44.5511 100.229C44.5511 69.4788 69.479 44.5508 100.229 44.5508C126.78 44.5508 148.991 63.1352 154.561 88.0054Z" fill="white"/>
</svg>
