<svg width="256" height="256" viewBox="0 0 256 256" fill="none" xmlns="http://www.w3.org/2000/svg">
<mask id="mask0_685_31" style="mask-type:alpha" maskUnits="userSpaceOnUse" x="0" y="0" width="256" height="256">
<circle cx="128" cy="128" r="128" fill="#D9D9D9"/>
</mask>
<g mask="url(#mask0_685_31)">
<circle cx="128" cy="128" r="128" fill="black"/>
<path d="M199.359 161.329L175.629 161.478L175.433 84.198L98.1528 84.0022L98.3026 60.2726L199.103 60.528L199.359 161.329ZM98.8987 295.474L65.2134 261.789C53.5639 250.139 47.7212 236.124 47.6852 219.744C47.6493 203.364 53.4211 189.379 65.0005 177.788L116.739 126.049L56.259 125.896L56.4088 102.166L157.209 102.422L157.465 203.222L133.735 203.372L133.582 142.892L81.8432 194.631C74.8609 201.613 71.3821 210.004 71.407 219.804C71.4318 229.604 74.9531 238.013 81.9709 245.031L115.656 278.716L98.8987 295.474Z" fill="white"/>
</g>
</svg>